<?xml version="1.0" standalone="no"?>
<!DOCTYPE svg PUBLIC "-//W3C//DTD SVG 20010904//EN"
 "http://www.w3.org/TR/2001/REC-SVG-20010904/DTD/svg10.dtd">
<svg version="1.0" xmlns="http://www.w3.org/2000/svg"
 width="500.000000pt" height="500.000000pt" viewBox="0 0 500.000000 500.000000"
 preserveAspectRatio="xMidYMid meet">

<g transform="translate(0.000000,500.000000) scale(0.100000,-0.100000)"
fill="#000000" stroke="none">
<path d="M163 3294 c-10 -4 -13 -53 -13 -195 l0 -189 400 0 c383 0 402 -1 457
-21 82 -31 138 -90 153 -163 24 -119 -18 -214 -117 -262 l-58 -29 -418 -3
-417 -3 2 -617 3 -617 195 0 195 0 3 423 2 422 113 0 113 0 194 -422 195 -423
208 -3 c164 -2 209 0 213 11 2 7 -29 85 -69 172 -41 88 -131 283 -201 433 -69
150 -126 279 -126 285 0 7 35 30 77 52 244 125 351 398 278 712 -36 153 -138
283 -279 352 -160 79 -195 84 -671 87 -231 2 -426 1 -432 -2z"/>
<path d="M1671 3286 c-8 -10 -10 -228 -9 -802 l3 -789 200 0 200 0 5 439 5
439 483 -691 484 -692 193 0 c167 0 194 2 199 16 3 9 6 478 6 1043 0 785 -3
1030 -12 1039 -13 13 -341 18 -372 6 -14 -6 -16 -76 -16 -696 0 -413 -4 -687
-9 -684 -5 4 -222 310 -481 681 -259 372 -478 682 -487 690 -20 21 -375 22
-392 1z"/>
<path d="M3537 3293 c-4 -3 -7 -91 -7 -194 0 -161 2 -188 16 -193 9 -3 159 -6
335 -6 175 0 319 -2 319 -5 0 -3 -81 -208 -180 -455 -99 -247 -180 -452 -180
-455 0 -3 96 -5 214 -5 l213 0 258 639 c141 352 255 647 253 658 -3 17 -30 18
-619 21 -338 1 -619 -1 -622 -5z"/>
<path d="M3671 1563 c-31 -61 -141 -348 -137 -359 5 -12 109 -14 628 -12 l623
3 3 179 c2 123 -1 183 -9 192 -9 12 -105 14 -555 14 -507 0 -544 -1 -553 -17z"/>
</g>
</svg>
